<svg xmlns="http://www.w3.org/2000/svg" width="1020" height="520" viewBox="0 0 1020 520">
<rect width="100%" height="100%" fill="#10160f"/>
<text x="28" y="38" fill="#eef5e8" font-family="Inter, Arial" font-size="24" font-weight="700">Cross-Modal Alignment Stress Test</text>
<text x="28" y="64" fill="#a7b5a3" font-family="Inter, Arial" font-size="13">Query features are shifted in time; the target visual window remains the original held-out window.</text>
<rect x="94" y="80" width="810" height="330" fill="#151d14" stroke="#34402f"/>
<line x1="94.00" y1="80" x2="94.00" y2="410" stroke="#263024" stroke-width="1"/>
<text x="94.00" y="434" fill="#a7b5a3" font-family="Inter, Arial" font-size="11" text-anchor="middle">-40</text>
<line x1="296.50" y1="80" x2="296.50" y2="410" stroke="#263024" stroke-width="1"/>
<text x="296.50" y="434" fill="#a7b5a3" font-family="Inter, Arial" font-size="11" text-anchor="middle">-20</text>
<line x1="397.75" y1="80" x2="397.75" y2="410" stroke="#263024" stroke-width="1"/>
<text x="397.75" y="434" fill="#a7b5a3" font-family="Inter, Arial" font-size="11" text-anchor="middle">-10</text>
<line x1="448.38" y1="80" x2="448.38" y2="410" stroke="#263024" stroke-width="1"/>
<text x="448.38" y="434" fill="#a7b5a3" font-family="Inter, Arial" font-size="11" text-anchor="middle">-5</text>
<line x1="499.00" y1="80" x2="499.00" y2="410" stroke="#263024" stroke-width="1"/>
<text x="499.00" y="434" fill="#a7b5a3" font-family="Inter, Arial" font-size="11" text-anchor="middle">0</text>
<line x1="549.62" y1="80" x2="549.62" y2="410" stroke="#263024" stroke-width="1"/>
<text x="549.62" y="434" fill="#a7b5a3" font-family="Inter, Arial" font-size="11" text-anchor="middle">5</text>
<line x1="600.25" y1="80" x2="600.25" y2="410" stroke="#263024" stroke-width="1"/>
<text x="600.25" y="434" fill="#a7b5a3" font-family="Inter, Arial" font-size="11" text-anchor="middle">10</text>
<line x1="701.50" y1="80" x2="701.50" y2="410" stroke="#263024" stroke-width="1"/>
<text x="701.50" y="434" fill="#a7b5a3" font-family="Inter, Arial" font-size="11" text-anchor="middle">20</text>
<line x1="904.00" y1="80" x2="904.00" y2="410" stroke="#263024" stroke-width="1"/>
<text x="904.00" y="434" fill="#a7b5a3" font-family="Inter, Arial" font-size="11" text-anchor="middle">40</text>
<text x="499.0" y="472" fill="#cbd8c8" font-family="Inter, Arial" font-size="13" text-anchor="middle">shift in windows</text>
<text x="30" y="245.0" fill="#cbd8c8" font-family="Inter, Arial" font-size="13" transform="rotate(-90 30 245.0)">MRR</text>
<polyline points="94.00,396.86 296.50,394.32 397.75,396.22 448.38,386.01 499.00,391.92 549.62,395.07 600.25,390.35 701.50,394.34 904.00,399.76" fill="none" stroke="#8ee06a" stroke-width="2.4"/>
<circle cx="94.00" cy="396.86" r="4" fill="#8ee06a"/>
<circle cx="296.50" cy="394.32" r="4" fill="#8ee06a"/>
<circle cx="397.75" cy="396.22" r="4" fill="#8ee06a"/>
<circle cx="448.38" cy="386.01" r="4" fill="#8ee06a"/>
<circle cx="499.00" cy="391.92" r="4" fill="#8ee06a"/>
<circle cx="549.62" cy="395.07" r="4" fill="#8ee06a"/>
<circle cx="600.25" cy="390.35" r="4" fill="#8ee06a"/>
<circle cx="701.50" cy="394.34" r="4" fill="#8ee06a"/>
<circle cx="904.00" cy="399.76" r="4" fill="#8ee06a"/>
<rect x="932" y="80" width="12" height="12" fill="#8ee06a"/>
<text x="950" y="91" fill="#e7efe2" font-family="Inter, Arial" font-size="12">Audio</text>
<polyline points="94.00,376.73 296.50,394.62 397.75,371.68 448.38,367.42 499.00,190.11 549.62,368.07 600.25,385.39 701.50,385.12 904.00,385.69" fill="none" stroke="#d8e887" stroke-width="2.4"/>
<circle cx="94.00" cy="376.73" r="4" fill="#d8e887"/>
<circle cx="296.50" cy="394.62" r="4" fill="#d8e887"/>
<circle cx="397.75" cy="371.68" r="4" fill="#d8e887"/>
<circle cx="448.38" cy="367.42" r="4" fill="#d8e887"/>
<circle cx="499.00" cy="190.11" r="4" fill="#d8e887"/>
<circle cx="549.62" cy="368.07" r="4" fill="#d8e887"/>
<circle cx="600.25" cy="385.39" r="4" fill="#d8e887"/>
<circle cx="701.50" cy="385.12" r="4" fill="#d8e887"/>
<circle cx="904.00" cy="385.69" r="4" fill="#d8e887"/>
<rect x="932" y="105" width="12" height="12" fill="#d8e887"/>
<text x="950" y="116" fill="#e7efe2" font-family="Inter, Arial" font-size="12">Inertial</text>
<polyline points="94.00,397.76 296.50,388.84 397.75,390.48 448.38,390.88 499.00,385.99 549.62,378.33 600.25,381.96 701.50,380.78 904.00,380.83" fill="none" stroke="#7bd3ff" stroke-width="2.4"/>
<circle cx="94.00" cy="397.76" r="4" fill="#7bd3ff"/>
<circle cx="296.50" cy="388.84" r="4" fill="#7bd3ff"/>
<circle cx="397.75" cy="390.48" r="4" fill="#7bd3ff"/>
<circle cx="448.38" cy="390.88" r="4" fill="#7bd3ff"/>
<circle cx="499.00" cy="385.99" r="4" fill="#7bd3ff"/>
<circle cx="549.62" cy="378.33" r="4" fill="#7bd3ff"/>
<circle cx="600.25" cy="381.96" r="4" fill="#7bd3ff"/>
<circle cx="701.50" cy="380.78" r="4" fill="#7bd3ff"/>
<circle cx="904.00" cy="380.83" r="4" fill="#7bd3ff"/>
<rect x="932" y="130" width="12" height="12" fill="#7bd3ff"/>
<text x="950" y="141" fill="#e7efe2" font-family="Inter, Arial" font-size="12">Language</text>
<polyline points="94.00,386.89 296.50,395.16 397.75,395.84 448.38,387.58 499.00,212.31 549.62,375.65 600.25,389.66 701.50,391.81 904.00,387.41" fill="none" stroke="#f0a45e" stroke-width="2.4"/>
<circle cx="94.00" cy="386.89" r="4" fill="#f0a45e"/>
<circle cx="296.50" cy="395.16" r="4" fill="#f0a45e"/>
<circle cx="397.75" cy="395.84" r="4" fill="#f0a45e"/>
<circle cx="448.38" cy="387.58" r="4" fill="#f0a45e"/>
<circle cx="499.00" cy="212.31" r="4" fill="#f0a45e"/>
<circle cx="549.62" cy="375.65" r="4" fill="#f0a45e"/>
<circle cx="600.25" cy="389.66" r="4" fill="#f0a45e"/>
<circle cx="701.50" cy="391.81" r="4" fill="#f0a45e"/>
<circle cx="904.00" cy="387.41" r="4" fill="#f0a45e"/>
<rect x="932" y="155" width="12" height="12" fill="#f0a45e"/>
<text x="950" y="166" fill="#e7efe2" font-family="Inter, Arial" font-size="12">Motion Capture</text>
<polyline points="94.00,370.92 296.50,391.60 397.75,379.10 448.38,369.98 499.00,108.27 549.62,364.26 600.25,384.66 701.50,387.67 904.00,384.06" fill="none" stroke="#cba8ff" stroke-width="2.4"/>
<circle cx="94.00" cy="370.92" r="4" fill="#cba8ff"/>
<circle cx="296.50" cy="391.60" r="4" fill="#cba8ff"/>
<circle cx="397.75" cy="379.10" r="4" fill="#cba8ff"/>
<circle cx="448.38" cy="369.98" r="4" fill="#cba8ff"/>
<circle cx="499.00" cy="108.27" r="4" fill="#cba8ff"/>
<circle cx="549.62" cy="364.26" r="4" fill="#cba8ff"/>
<circle cx="600.25" cy="384.66" r="4" fill="#cba8ff"/>
<circle cx="701.50" cy="387.67" r="4" fill="#cba8ff"/>
<circle cx="904.00" cy="384.06" r="4" fill="#cba8ff"/>
<rect x="932" y="180" width="12" height="12" fill="#cba8ff"/>
<text x="950" y="191" fill="#e7efe2" font-family="Inter, Arial" font-size="12">Motion + Pose + IMU</text>
<polyline points="94.00,382.01 296.50,394.06 397.75,378.04 448.38,364.82 499.00,80.00 549.62,373.96 600.25,383.44 701.50,384.55 904.00,390.66" fill="none" stroke="#8ee06a" stroke-width="2.4"/>
<circle cx="94.00" cy="382.01" r="4" fill="#8ee06a"/>
<circle cx="296.50" cy="394.06" r="4" fill="#8ee06a"/>
<circle cx="397.75" cy="378.04" r="4" fill="#8ee06a"/>
<circle cx="448.38" cy="364.82" r="4" fill="#8ee06a"/>
<circle cx="499.00" cy="80.00" r="4" fill="#8ee06a"/>
<circle cx="549.62" cy="373.96" r="4" fill="#8ee06a"/>
<circle cx="600.25" cy="383.44" r="4" fill="#8ee06a"/>
<circle cx="701.50" cy="384.55" r="4" fill="#8ee06a"/>
<circle cx="904.00" cy="390.66" r="4" fill="#8ee06a"/>
<rect x="932" y="205" width="12" height="12" fill="#8ee06a"/>
<text x="950" y="216" fill="#e7efe2" font-family="Inter, Arial" font-size="12">Pose + SLAM</text>
</svg>