<svg xmlns="http://www.w3.org/2000/svg" width="1532" height="592" viewBox="0 0 1532 592">
<rect width="100%" height="100%" fill="#10160f"/>
<text x="28" y="38" fill="#eef5e8" font-family="Inter, Arial" font-size="24" font-weight="700">Single-Episode Modality Ablation Matrix</text>
<text x="28" y="66" fill="#a7b5a3" font-family="Inter, Arial" font-size="13">Scores are recomputed from shared_windows.npz; gray cells are intentionally not computed.</text>
<text x="306" y="80" fill="#cbd8c8" font-family="Inter, Arial" font-size="12" transform="rotate(-25 306 80)">All Features</text>
<text x="438" y="80" fill="#cbd8c8" font-family="Inter, Arial" font-size="12" transform="rotate(-25 438 80)">Video</text>
<text x="570" y="80" fill="#cbd8c8" font-family="Inter, Arial" font-size="12" transform="rotate(-25 570 80)">Depth</text>
<text x="702" y="80" fill="#cbd8c8" font-family="Inter, Arial" font-size="12" transform="rotate(-25 702 80)">Pose + SLAM</text>
<text x="834" y="80" fill="#cbd8c8" font-family="Inter, Arial" font-size="12" transform="rotate(-25 834 80)">Motion Capture</text>
<text x="966" y="80" fill="#cbd8c8" font-family="Inter, Arial" font-size="12" transform="rotate(-25 966 80)">Inertial</text>
<text x="1098" y="80" fill="#cbd8c8" font-family="Inter, Arial" font-size="12" transform="rotate(-25 1098 80)">Language</text>
<text x="1230" y="80" fill="#cbd8c8" font-family="Inter, Arial" font-size="12" transform="rotate(-25 1230 80)">All Except Language</text>
<text x="1362" y="80" fill="#cbd8c8" font-family="Inter, Arial" font-size="12" transform="rotate(-25 1362 80)">Motion + Pose + IMU</text>
<text x="28" y="120" fill="#e7efe2" font-family="Inter, Arial" font-size="13">Current Action Recognition</text>
<rect x="300" y="98" width="124" height="27" rx="5" fill="#984936" stroke="#34402f" stroke-width="1"/>
<text x="362.0" y="117" text-anchor="middle" fill="#edf5e7" font-family="Inter, Arial" font-size="12" font-weight="700">0.01</text>
<rect x="432" y="98" width="124" height="27" rx="5" fill="#994936" stroke="#34402f" stroke-width="1"/>
<text x="494.0" y="117" text-anchor="middle" fill="#edf5e7" font-family="Inter, Arial" font-size="12" font-weight="700">0.01</text>
<rect x="564" y="98" width="124" height="27" rx="5" fill="#994836" stroke="#34402f" stroke-width="1"/>
<text x="626.0" y="117" text-anchor="middle" fill="#edf5e7" font-family="Inter, Arial" font-size="12" font-weight="700">0.00</text>
<rect x="696" y="98" width="124" height="27" rx="5" fill="#9a4836" stroke="#34402f" stroke-width="1"/>
<text x="758.0" y="117" text-anchor="middle" fill="#edf5e7" font-family="Inter, Arial" font-size="12" font-weight="700">0.00</text>
<rect x="828" y="98" width="124" height="27" rx="5" fill="#994836" stroke="#34402f" stroke-width="1"/>
<text x="890.0" y="117" text-anchor="middle" fill="#edf5e7" font-family="Inter, Arial" font-size="12" font-weight="700">0.01</text>
<rect x="960" y="98" width="124" height="27" rx="5" fill="#994836" stroke="#34402f" stroke-width="1"/>
<text x="1022.0" y="117" text-anchor="middle" fill="#edf5e7" font-family="Inter, Arial" font-size="12" font-weight="700">0.00</text>
<rect x="1092" y="98" width="124" height="27" rx="5" fill="#964c37" stroke="#34402f" stroke-width="1"/>
<text x="1154.0" y="117" text-anchor="middle" fill="#edf5e7" font-family="Inter, Arial" font-size="12" font-weight="700">0.03</text>
<rect x="1224" y="98" width="124" height="27" rx="5" fill="#994936" stroke="#34402f" stroke-width="1"/>
<text x="1286.0" y="117" text-anchor="middle" fill="#edf5e7" font-family="Inter, Arial" font-size="12" font-weight="700">0.01</text>
<rect x="1356" y="98" width="124" height="27" rx="5" fill="#222720" stroke="#34402f" stroke-width="1"/>
<text x="1418.0" y="117" text-anchor="middle" fill="#7b8678" font-family="Inter, Arial" font-size="12" font-weight="700">n/a</text>
<text x="28" y="154" fill="#e7efe2" font-family="Inter, Arial" font-size="13">Current Subtask Recognition</text>
<rect x="300" y="132" width="124" height="27" rx="5" fill="#984936" stroke="#34402f" stroke-width="1"/>
<text x="362.0" y="151" text-anchor="middle" fill="#edf5e7" font-family="Inter, Arial" font-size="12" font-weight="700">0.01</text>
<rect x="432" y="132" width="124" height="27" rx="5" fill="#984936" stroke="#34402f" stroke-width="1"/>
<text x="494.0" y="151" text-anchor="middle" fill="#edf5e7" font-family="Inter, Arial" font-size="12" font-weight="700">0.01</text>
<rect x="564" y="132" width="124" height="27" rx="5" fill="#984936" stroke="#34402f" stroke-width="1"/>
<text x="626.0" y="151" text-anchor="middle" fill="#edf5e7" font-family="Inter, Arial" font-size="12" font-weight="700">0.01</text>
<rect x="696" y="132" width="124" height="27" rx="5" fill="#994836" stroke="#34402f" stroke-width="1"/>
<text x="758.0" y="151" text-anchor="middle" fill="#edf5e7" font-family="Inter, Arial" font-size="12" font-weight="700">0.00</text>
<rect x="828" y="132" width="124" height="27" rx="5" fill="#994936" stroke="#34402f" stroke-width="1"/>
<text x="890.0" y="151" text-anchor="middle" fill="#edf5e7" font-family="Inter, Arial" font-size="12" font-weight="700">0.01</text>
<rect x="960" y="132" width="124" height="27" rx="5" fill="#994836" stroke="#34402f" stroke-width="1"/>
<text x="1022.0" y="151" text-anchor="middle" fill="#edf5e7" font-family="Inter, Arial" font-size="12" font-weight="700">0.00</text>
<rect x="1092" y="132" width="124" height="27" rx="5" fill="#944f38" stroke="#34402f" stroke-width="1"/>
<text x="1154.0" y="151" text-anchor="middle" fill="#edf5e7" font-family="Inter, Arial" font-size="12" font-weight="700">0.05</text>
<rect x="1224" y="132" width="124" height="27" rx="5" fill="#984936" stroke="#34402f" stroke-width="1"/>
<text x="1286.0" y="151" text-anchor="middle" fill="#edf5e7" font-family="Inter, Arial" font-size="12" font-weight="700">0.01</text>
<rect x="1356" y="132" width="124" height="27" rx="5" fill="#222720" stroke="#34402f" stroke-width="1"/>
<text x="1418.0" y="151" text-anchor="middle" fill="#7b8678" font-family="Inter, Arial" font-size="12" font-weight="700">n/a</text>
<text x="28" y="188" fill="#e7efe2" font-family="Inter, Arial" font-size="13">Action Transition Detection</text>
<rect x="300" y="166" width="124" height="27" rx="5" fill="#638f4c" stroke="#34402f" stroke-width="1"/>
<text x="362.0" y="185" text-anchor="middle" fill="#edf5e7" font-family="Inter, Arial" font-size="12" font-weight="700">0.47</text>
<rect x="432" y="166" width="124" height="27" rx="5" fill="#638e4b" stroke="#34402f" stroke-width="1"/>
<text x="494.0" y="185" text-anchor="middle" fill="#edf5e7" font-family="Inter, Arial" font-size="12" font-weight="700">0.47</text>
<rect x="564" y="166" width="124" height="27" rx="5" fill="#648d4b" stroke="#34402f" stroke-width="1"/>
<text x="626.0" y="185" text-anchor="middle" fill="#edf5e7" font-family="Inter, Arial" font-size="12" font-weight="700">0.46</text>
<rect x="696" y="166" width="124" height="27" rx="5" fill="#61914c" stroke="#34402f" stroke-width="1"/>
<text x="758.0" y="185" text-anchor="middle" fill="#edf5e7" font-family="Inter, Arial" font-size="12" font-weight="700">0.48</text>
<rect x="828" y="166" width="124" height="27" rx="5" fill="#5a9a4f" stroke="#34402f" stroke-width="1"/>
<text x="890.0" y="185" text-anchor="middle" fill="#edf5e7" font-family="Inter, Arial" font-size="12" font-weight="700">0.54</text>
<rect x="960" y="166" width="124" height="27" rx="5" fill="#61914c" stroke="#34402f" stroke-width="1"/>
<text x="1022.0" y="185" text-anchor="middle" fill="#edf5e7" font-family="Inter, Arial" font-size="12" font-weight="700">0.49</text>
<rect x="1092" y="166" width="124" height="27" rx="5" fill="#47b357" stroke="#34402f" stroke-width="1"/>
<text x="1154.0" y="185" text-anchor="middle" fill="#061006" font-family="Inter, Arial" font-size="12" font-weight="700">0.71</text>
<rect x="1224" y="166" width="124" height="27" rx="5" fill="#638e4b" stroke="#34402f" stroke-width="1"/>
<text x="1286.0" y="185" text-anchor="middle" fill="#edf5e7" font-family="Inter, Arial" font-size="12" font-weight="700">0.47</text>
<rect x="1356" y="166" width="124" height="27" rx="5" fill="#222720" stroke="#34402f" stroke-width="1"/>
<text x="1418.0" y="185" text-anchor="middle" fill="#7b8678" font-family="Inter, Arial" font-size="12" font-weight="700">n/a</text>
<text x="28" y="222" fill="#e7efe2" font-family="Inter, Arial" font-size="13">Next-Action Prediction</text>
<rect x="300" y="200" width="124" height="27" rx="5" fill="#994836" stroke="#34402f" stroke-width="1"/>
<text x="362.0" y="219" text-anchor="middle" fill="#edf5e7" font-family="Inter, Arial" font-size="12" font-weight="700">0.01</text>
<rect x="432" y="200" width="124" height="27" rx="5" fill="#994836" stroke="#34402f" stroke-width="1"/>
<text x="494.0" y="219" text-anchor="middle" fill="#edf5e7" font-family="Inter, Arial" font-size="12" font-weight="700">0.01</text>
<rect x="564" y="200" width="124" height="27" rx="5" fill="#994836" stroke="#34402f" stroke-width="1"/>
<text x="626.0" y="219" text-anchor="middle" fill="#edf5e7" font-family="Inter, Arial" font-size="12" font-weight="700">0.00</text>
<rect x="696" y="200" width="124" height="27" rx="5" fill="#9a4836" stroke="#34402f" stroke-width="1"/>
<text x="758.0" y="219" text-anchor="middle" fill="#edf5e7" font-family="Inter, Arial" font-size="12" font-weight="700">0.00</text>
<rect x="828" y="200" width="124" height="27" rx="5" fill="#994836" stroke="#34402f" stroke-width="1"/>
<text x="890.0" y="219" text-anchor="middle" fill="#edf5e7" font-family="Inter, Arial" font-size="12" font-weight="700">0.00</text>
<rect x="960" y="200" width="124" height="27" rx="5" fill="#994836" stroke="#34402f" stroke-width="1"/>
<text x="1022.0" y="219" text-anchor="middle" fill="#edf5e7" font-family="Inter, Arial" font-size="12" font-weight="700">0.00</text>
<rect x="1092" y="200" width="124" height="27" rx="5" fill="#954e37" stroke="#34402f" stroke-width="1"/>
<text x="1154.0" y="219" text-anchor="middle" fill="#edf5e7" font-family="Inter, Arial" font-size="12" font-weight="700">0.04</text>
<rect x="1224" y="200" width="124" height="27" rx="5" fill="#994836" stroke="#34402f" stroke-width="1"/>
<text x="1286.0" y="219" text-anchor="middle" fill="#edf5e7" font-family="Inter, Arial" font-size="12" font-weight="700">0.00</text>
<rect x="1356" y="200" width="124" height="27" rx="5" fill="#222720" stroke="#34402f" stroke-width="1"/>
<text x="1418.0" y="219" text-anchor="middle" fill="#7b8678" font-family="Inter, Arial" font-size="12" font-weight="700">n/a</text>
<text x="28" y="256" fill="#e7efe2" font-family="Inter, Arial" font-size="13">Future Hand Motion Forecasting</text>
<rect x="300" y="234" width="124" height="27" rx="5" fill="#8d573a" stroke="#34402f" stroke-width="1"/>
<text x="362.0" y="253" text-anchor="middle" fill="#edf5e7" font-family="Inter, Arial" font-size="12" font-weight="700">0.10</text>
<rect x="432" y="234" width="124" height="27" rx="5" fill="#60934d" stroke="#34402f" stroke-width="1"/>
<text x="494.0" y="253" text-anchor="middle" fill="#edf5e7" font-family="Inter, Arial" font-size="12" font-weight="700">0.50</text>
<rect x="564" y="234" width="124" height="27" rx="5" fill="#954e37" stroke="#34402f" stroke-width="1"/>
<text x="626.0" y="253" text-anchor="middle" fill="#edf5e7" font-family="Inter, Arial" font-size="12" font-weight="700">0.04</text>
<rect x="696" y="234" width="124" height="27" rx="5" fill="#589d50" stroke="#34402f" stroke-width="1"/>
<text x="758.0" y="253" text-anchor="middle" fill="#edf5e7" font-family="Inter, Arial" font-size="12" font-weight="700">0.56</text>
<rect x="828" y="234" width="124" height="27" rx="5" fill="#905439" stroke="#34402f" stroke-width="1"/>
<text x="890.0" y="253" text-anchor="middle" fill="#edf5e7" font-family="Inter, Arial" font-size="12" font-weight="700">0.08</text>
<rect x="960" y="234" width="124" height="27" rx="5" fill="#579e50" stroke="#34402f" stroke-width="1"/>
<text x="1022.0" y="253" text-anchor="middle" fill="#edf5e7" font-family="Inter, Arial" font-size="12" font-weight="700">0.57</text>
<rect x="1092" y="234" width="124" height="27" rx="5" fill="#658c4b" stroke="#34402f" stroke-width="1"/>
<text x="1154.0" y="253" text-anchor="middle" fill="#edf5e7" font-family="Inter, Arial" font-size="12" font-weight="700">0.45</text>
<rect x="1224" y="234" width="124" height="27" rx="5" fill="#8e563a" stroke="#34402f" stroke-width="1"/>
<text x="1286.0" y="253" text-anchor="middle" fill="#edf5e7" font-family="Inter, Arial" font-size="12" font-weight="700">0.10</text>
<rect x="1356" y="234" width="124" height="27" rx="5" fill="#222720" stroke="#34402f" stroke-width="1"/>
<text x="1418.0" y="253" text-anchor="middle" fill="#7b8678" font-family="Inter, Arial" font-size="12" font-weight="700">n/a</text>
<text x="28" y="290" fill="#e7efe2" font-family="Inter, Arial" font-size="13">Contact State Prediction</text>
<rect x="300" y="268" width="124" height="27" rx="5" fill="#25e065" stroke="#34402f" stroke-width="1"/>
<text x="362.0" y="287" text-anchor="middle" fill="#061006" font-family="Inter, Arial" font-size="12" font-weight="700">1.00</text>
<rect x="432" y="268" width="124" height="27" rx="5" fill="#25e065" stroke="#34402f" stroke-width="1"/>
<text x="494.0" y="287" text-anchor="middle" fill="#061006" font-family="Inter, Arial" font-size="12" font-weight="700">1.00</text>
<rect x="564" y="268" width="124" height="27" rx="5" fill="#25e065" stroke="#34402f" stroke-width="1"/>
<text x="626.0" y="287" text-anchor="middle" fill="#061006" font-family="Inter, Arial" font-size="12" font-weight="700">1.00</text>
<rect x="696" y="268" width="124" height="27" rx="5" fill="#25e065" stroke="#34402f" stroke-width="1"/>
<text x="758.0" y="287" text-anchor="middle" fill="#061006" font-family="Inter, Arial" font-size="12" font-weight="700">1.00</text>
<rect x="828" y="268" width="124" height="27" rx="5" fill="#25e065" stroke="#34402f" stroke-width="1"/>
<text x="890.0" y="287" text-anchor="middle" fill="#061006" font-family="Inter, Arial" font-size="12" font-weight="700">1.00</text>
<rect x="960" y="268" width="124" height="27" rx="5" fill="#25e065" stroke="#34402f" stroke-width="1"/>
<text x="1022.0" y="287" text-anchor="middle" fill="#061006" font-family="Inter, Arial" font-size="12" font-weight="700">1.00</text>
<rect x="1092" y="268" width="124" height="27" rx="5" fill="#25e065" stroke="#34402f" stroke-width="1"/>
<text x="1154.0" y="287" text-anchor="middle" fill="#061006" font-family="Inter, Arial" font-size="12" font-weight="700">1.00</text>
<rect x="1224" y="268" width="124" height="27" rx="5" fill="#25e065" stroke="#34402f" stroke-width="1"/>
<text x="1286.0" y="287" text-anchor="middle" fill="#061006" font-family="Inter, Arial" font-size="12" font-weight="700">1.00</text>
<rect x="1356" y="268" width="124" height="27" rx="5" fill="#222720" stroke="#34402f" stroke-width="1"/>
<text x="1418.0" y="287" text-anchor="middle" fill="#7b8678" font-family="Inter, Arial" font-size="12" font-weight="700">n/a</text>
<text x="28" y="324" fill="#e7efe2" font-family="Inter, Arial" font-size="13">Relevant Object Prediction</text>
<rect x="300" y="302" width="124" height="27" rx="5" fill="#85623e" stroke="#34402f" stroke-width="1"/>
<text x="362.0" y="321" text-anchor="middle" fill="#edf5e7" font-family="Inter, Arial" font-size="12" font-weight="700">0.18</text>
<rect x="432" y="302" width="124" height="27" rx="5" fill="#885e3c" stroke="#34402f" stroke-width="1"/>
<text x="494.0" y="321" text-anchor="middle" fill="#edf5e7" font-family="Inter, Arial" font-size="12" font-weight="700">0.15</text>
<rect x="564" y="302" width="124" height="27" rx="5" fill="#82663f" stroke="#34402f" stroke-width="1"/>
<text x="626.0" y="321" text-anchor="middle" fill="#edf5e7" font-family="Inter, Arial" font-size="12" font-weight="700">0.20</text>
<rect x="696" y="302" width="124" height="27" rx="5" fill="#83653f" stroke="#34402f" stroke-width="1"/>
<text x="758.0" y="321" text-anchor="middle" fill="#edf5e7" font-family="Inter, Arial" font-size="12" font-weight="700">0.20</text>
<rect x="828" y="302" width="124" height="27" rx="5" fill="#8c593b" stroke="#34402f" stroke-width="1"/>
<text x="890.0" y="321" text-anchor="middle" fill="#edf5e7" font-family="Inter, Arial" font-size="12" font-weight="700">0.12</text>
<rect x="960" y="302" width="124" height="27" rx="5" fill="#85623e" stroke="#34402f" stroke-width="1"/>
<text x="1022.0" y="321" text-anchor="middle" fill="#edf5e7" font-family="Inter, Arial" font-size="12" font-weight="700">0.17</text>
<rect x="1092" y="302" width="124" height="27" rx="5" fill="#7f6a40" stroke="#34402f" stroke-width="1"/>
<text x="1154.0" y="321" text-anchor="middle" fill="#edf5e7" font-family="Inter, Arial" font-size="12" font-weight="700">0.23</text>
<rect x="1224" y="302" width="124" height="27" rx="5" fill="#885e3c" stroke="#34402f" stroke-width="1"/>
<text x="1286.0" y="321" text-anchor="middle" fill="#edf5e7" font-family="Inter, Arial" font-size="12" font-weight="700">0.15</text>
<rect x="1356" y="302" width="124" height="27" rx="5" fill="#222720" stroke="#34402f" stroke-width="1"/>
<text x="1418.0" y="321" text-anchor="middle" fill="#7b8678" font-family="Inter, Arial" font-size="12" font-weight="700">n/a</text>
<text x="28" y="358" fill="#e7efe2" font-family="Inter, Arial" font-size="13">Language-to-Time Grounding</text>
<rect x="300" y="336" width="124" height="27" rx="5" fill="#81673f" stroke="#34402f" stroke-width="1"/>
<text x="362.0" y="355" text-anchor="middle" fill="#edf5e7" font-family="Inter, Arial" font-size="12" font-weight="700">0.21</text>
<rect x="432" y="336" width="124" height="27" rx="5" fill="#974b37" stroke="#34402f" stroke-width="1"/>
<text x="494.0" y="355" text-anchor="middle" fill="#edf5e7" font-family="Inter, Arial" font-size="12" font-weight="700">0.02</text>
<rect x="564" y="336" width="124" height="27" rx="5" fill="#974b37" stroke="#34402f" stroke-width="1"/>
<text x="626.0" y="355" text-anchor="middle" fill="#edf5e7" font-family="Inter, Arial" font-size="12" font-weight="700">0.02</text>
<rect x="696" y="336" width="124" height="27" rx="5" fill="#964c37" stroke="#34402f" stroke-width="1"/>
<text x="758.0" y="355" text-anchor="middle" fill="#edf5e7" font-family="Inter, Arial" font-size="12" font-weight="700">0.03</text>
<rect x="828" y="336" width="124" height="27" rx="5" fill="#964c37" stroke="#34402f" stroke-width="1"/>
<text x="890.0" y="355" text-anchor="middle" fill="#edf5e7" font-family="Inter, Arial" font-size="12" font-weight="700">0.03</text>
<rect x="960" y="336" width="124" height="27" rx="5" fill="#974b37" stroke="#34402f" stroke-width="1"/>
<text x="1022.0" y="355" text-anchor="middle" fill="#edf5e7" font-family="Inter, Arial" font-size="12" font-weight="700">0.02</text>
<rect x="1092" y="336" width="124" height="27" rx="5" fill="#7d6d41" stroke="#34402f" stroke-width="1"/>
<text x="1154.0" y="355" text-anchor="middle" fill="#edf5e7" font-family="Inter, Arial" font-size="12" font-weight="700">0.25</text>
<rect x="1224" y="336" width="124" height="27" rx="5" fill="#964c37" stroke="#34402f" stroke-width="1"/>
<text x="1286.0" y="355" text-anchor="middle" fill="#edf5e7" font-family="Inter, Arial" font-size="12" font-weight="700">0.03</text>
<rect x="1356" y="336" width="124" height="27" rx="5" fill="#222720" stroke="#34402f" stroke-width="1"/>
<text x="1418.0" y="355" text-anchor="middle" fill="#7b8678" font-family="Inter, Arial" font-size="12" font-weight="700">n/a</text>
<text x="28" y="392" fill="#e7efe2" font-family="Inter, Arial" font-size="13">Cross-Modal Window Retrieval</text>
<rect x="300" y="370" width="124" height="27" rx="5" fill="#28db63" stroke="#34402f" stroke-width="1"/>
<text x="362.0" y="389" text-anchor="middle" fill="#061006" font-family="Inter, Arial" font-size="12" font-weight="700">0.97</text>
<rect x="432" y="370" width="124" height="27" rx="5" fill="#28db63" stroke="#34402f" stroke-width="1"/>
<text x="494.0" y="389" text-anchor="middle" fill="#061006" font-family="Inter, Arial" font-size="12" font-weight="700">0.97</text>
<rect x="564" y="370" width="124" height="27" rx="5" fill="#4cad55" stroke="#34402f" stroke-width="1"/>
<text x="626.0" y="389" text-anchor="middle" fill="#061006" font-family="Inter, Arial" font-size="12" font-weight="700">0.67</text>
<rect x="696" y="370" width="124" height="27" rx="5" fill="#68884a" stroke="#34402f" stroke-width="1"/>
<text x="758.0" y="389" text-anchor="middle" fill="#edf5e7" font-family="Inter, Arial" font-size="12" font-weight="700">0.43</text>
<rect x="828" y="370" width="124" height="27" rx="5" fill="#7c6e42" stroke="#34402f" stroke-width="1"/>
<text x="890.0" y="389" text-anchor="middle" fill="#edf5e7" font-family="Inter, Arial" font-size="12" font-weight="700">0.26</text>
<rect x="960" y="370" width="124" height="27" rx="5" fill="#787343" stroke="#34402f" stroke-width="1"/>
<text x="1022.0" y="389" text-anchor="middle" fill="#edf5e7" font-family="Inter, Arial" font-size="12" font-weight="700">0.28</text>
<rect x="1092" y="370" width="124" height="27" rx="5" fill="#964c37" stroke="#34402f" stroke-width="1"/>
<text x="1154.0" y="389" text-anchor="middle" fill="#edf5e7" font-family="Inter, Arial" font-size="12" font-weight="700">0.03</text>
<rect x="1224" y="370" width="124" height="27" rx="5" fill="#28db63" stroke="#34402f" stroke-width="1"/>
<text x="1286.0" y="389" text-anchor="middle" fill="#061006" font-family="Inter, Arial" font-size="12" font-weight="700">0.97</text>
<rect x="1356" y="370" width="124" height="27" rx="5" fill="#222720" stroke="#34402f" stroke-width="1"/>
<text x="1418.0" y="389" text-anchor="middle" fill="#7b8678" font-family="Inter, Arial" font-size="12" font-weight="700">n/a</text>
<text x="28" y="426" fill="#e7efe2" font-family="Inter, Arial" font-size="13">Sensor-to-Visual Reconstruction</text>
<rect x="300" y="404" width="124" height="27" rx="5" fill="#82663f" stroke="#34402f" stroke-width="1"/>
<text x="362.0" y="423" text-anchor="middle" fill="#edf5e7" font-family="Inter, Arial" font-size="12" font-weight="700">0.20</text>
<rect x="432" y="404" width="124" height="27" rx="5" fill="#52a452" stroke="#34402f" stroke-width="1"/>
<text x="494.0" y="423" text-anchor="middle" fill="#edf5e7" font-family="Inter, Arial" font-size="12" font-weight="700">0.61</text>
<rect x="564" y="404" width="124" height="27" rx="5" fill="#925138" stroke="#34402f" stroke-width="1"/>
<text x="626.0" y="423" text-anchor="middle" fill="#edf5e7" font-family="Inter, Arial" font-size="12" font-weight="700">0.06</text>
<rect x="696" y="404" width="124" height="27" rx="5" fill="#5b994f" stroke="#34402f" stroke-width="1"/>
<text x="758.0" y="423" text-anchor="middle" fill="#edf5e7" font-family="Inter, Arial" font-size="12" font-weight="700">0.54</text>
<rect x="828" y="404" width="124" height="27" rx="5" fill="#905339" stroke="#34402f" stroke-width="1"/>
<text x="890.0" y="423" text-anchor="middle" fill="#edf5e7" font-family="Inter, Arial" font-size="12" font-weight="700">0.08</text>
<rect x="960" y="404" width="124" height="27" rx="5" fill="#5d964e" stroke="#34402f" stroke-width="1"/>
<text x="1022.0" y="423" text-anchor="middle" fill="#edf5e7" font-family="Inter, Arial" font-size="12" font-weight="700">0.52</text>
<rect x="1092" y="404" width="124" height="27" rx="5" fill="#698649" stroke="#34402f" stroke-width="1"/>
<text x="1154.0" y="423" text-anchor="middle" fill="#edf5e7" font-family="Inter, Arial" font-size="12" font-weight="700">0.41</text>
<rect x="1224" y="404" width="124" height="27" rx="5" fill="#83653f" stroke="#34402f" stroke-width="1"/>
<text x="1286.0" y="423" text-anchor="middle" fill="#edf5e7" font-family="Inter, Arial" font-size="12" font-weight="700">0.20</text>
<rect x="1356" y="404" width="124" height="27" rx="5" fill="#222720" stroke="#34402f" stroke-width="1"/>
<text x="1418.0" y="423" text-anchor="middle" fill="#7b8678" font-family="Inter, Arial" font-size="12" font-weight="700">n/a</text>
<text x="28" y="460" fill="#e7efe2" font-family="Inter, Arial" font-size="13">Temporal Order Verification</text>
<rect x="300" y="438" width="124" height="27" rx="5" fill="#60934d" stroke="#34402f" stroke-width="1"/>
<text x="362.0" y="457" text-anchor="middle" fill="#edf5e7" font-family="Inter, Arial" font-size="12" font-weight="700">0.49</text>
<rect x="432" y="438" width="124" height="27" rx="5" fill="#5d964e" stroke="#34402f" stroke-width="1"/>
<text x="494.0" y="457" text-anchor="middle" fill="#edf5e7" font-family="Inter, Arial" font-size="12" font-weight="700">0.52</text>
<rect x="564" y="438" width="124" height="27" rx="5" fill="#60934d" stroke="#34402f" stroke-width="1"/>
<text x="626.0" y="457" text-anchor="middle" fill="#edf5e7" font-family="Inter, Arial" font-size="12" font-weight="700">0.49</text>
<rect x="696" y="438" width="124" height="27" rx="5" fill="#5c974e" stroke="#34402f" stroke-width="1"/>
<text x="758.0" y="457" text-anchor="middle" fill="#edf5e7" font-family="Inter, Arial" font-size="12" font-weight="700">0.53</text>
<rect x="828" y="438" width="124" height="27" rx="5" fill="#60934d" stroke="#34402f" stroke-width="1"/>
<text x="890.0" y="457" text-anchor="middle" fill="#edf5e7" font-family="Inter, Arial" font-size="12" font-weight="700">0.49</text>
<rect x="960" y="438" width="124" height="27" rx="5" fill="#5f944d" stroke="#34402f" stroke-width="1"/>
<text x="1022.0" y="457" text-anchor="middle" fill="#edf5e7" font-family="Inter, Arial" font-size="12" font-weight="700">0.50</text>
<rect x="1092" y="438" width="124" height="27" rx="5" fill="#688849" stroke="#34402f" stroke-width="1"/>
<text x="1154.0" y="457" text-anchor="middle" fill="#edf5e7" font-family="Inter, Arial" font-size="12" font-weight="700">0.42</text>
<rect x="1224" y="438" width="124" height="27" rx="5" fill="#5f934d" stroke="#34402f" stroke-width="1"/>
<text x="1286.0" y="457" text-anchor="middle" fill="#edf5e7" font-family="Inter, Arial" font-size="12" font-weight="700">0.50</text>
<rect x="1356" y="438" width="124" height="27" rx="5" fill="#222720" stroke="#34402f" stroke-width="1"/>
<text x="1418.0" y="457" text-anchor="middle" fill="#7b8678" font-family="Inter, Arial" font-size="12" font-weight="700">n/a</text>
<text x="28" y="494" fill="#e7efe2" font-family="Inter, Arial" font-size="13">Cross-Modal Misalignment Detection</text>
<rect x="300" y="472" width="124" height="27" rx="5" fill="#698649" stroke="#34402f" stroke-width="1"/>
<text x="362.0" y="491" text-anchor="middle" fill="#edf5e7" font-family="Inter, Arial" font-size="12" font-weight="700">0.41</text>
<rect x="432" y="472" width="124" height="27" rx="5" fill="#60934d" stroke="#34402f" stroke-width="1"/>
<text x="494.0" y="491" text-anchor="middle" fill="#edf5e7" font-family="Inter, Arial" font-size="12" font-weight="700">0.49</text>
<rect x="564" y="472" width="124" height="27" rx="5" fill="#638e4b" stroke="#34402f" stroke-width="1"/>
<text x="626.0" y="491" text-anchor="middle" fill="#edf5e7" font-family="Inter, Arial" font-size="12" font-weight="700">0.47</text>
<rect x="696" y="472" width="124" height="27" rx="5" fill="#60924d" stroke="#34402f" stroke-width="1"/>
<text x="758.0" y="491" text-anchor="middle" fill="#edf5e7" font-family="Inter, Arial" font-size="12" font-weight="700">0.49</text>
<rect x="828" y="472" width="124" height="27" rx="5" fill="#698649" stroke="#34402f" stroke-width="1"/>
<text x="890.0" y="491" text-anchor="middle" fill="#edf5e7" font-family="Inter, Arial" font-size="12" font-weight="700">0.41</text>
<rect x="960" y="472" width="124" height="27" rx="5" fill="#60924c" stroke="#34402f" stroke-width="1"/>
<text x="1022.0" y="491" text-anchor="middle" fill="#edf5e7" font-family="Inter, Arial" font-size="12" font-weight="700">0.49</text>
<rect x="1092" y="472" width="124" height="27" rx="5" fill="#60934d" stroke="#34402f" stroke-width="1"/>
<text x="1154.0" y="491" text-anchor="middle" fill="#edf5e7" font-family="Inter, Arial" font-size="12" font-weight="700">0.49</text>
<rect x="1224" y="472" width="124" height="27" rx="5" fill="#698649" stroke="#34402f" stroke-width="1"/>
<text x="1286.0" y="491" text-anchor="middle" fill="#edf5e7" font-family="Inter, Arial" font-size="12" font-weight="700">0.41</text>
<rect x="1356" y="472" width="124" height="27" rx="5" fill="#222720" stroke="#34402f" stroke-width="1"/>
<text x="1418.0" y="491" text-anchor="middle" fill="#7b8678" font-family="Inter, Arial" font-size="12" font-weight="700">n/a</text>
<text x="28" y="558" fill="#a7b5a3" font-family="Inter, Arial" font-size="12">Metric: macro-F1 / MRR / 1/(1+MAE), depending on task type. See CSV for raw values and overlap flags.</text>
</svg>