<svg xmlns="http://www.w3.org/2000/svg" width="1100" height="284" viewBox="0 0 1100 284">
<rect width="100%" height="100%" fill="#ffffff"/>
<text x="32" y="42" font-family="Arial, sans-serif" font-size="26" font-weight="700" fill="#111827">Cross-Modal Retrieval</text>
<text x="310" y="260" font-family="Arial, sans-serif" font-size="13" fill="#6b7280">score</text>
<line x1="310.0" y1="60" x2="310.0" y2="234" stroke="#e5e7eb" stroke-width="1"/>
<text x="310.0" y="254" text-anchor="middle" font-family="Arial, sans-serif" font-size="12" fill="#6b7280">0.00</text>
<line x1="454.0" y1="60" x2="454.0" y2="234" stroke="#e5e7eb" stroke-width="1"/>
<text x="454.0" y="254" text-anchor="middle" font-family="Arial, sans-serif" font-size="12" fill="#6b7280">0.20</text>
<line x1="598.0" y1="60" x2="598.0" y2="234" stroke="#e5e7eb" stroke-width="1"/>
<text x="598.0" y="254" text-anchor="middle" font-family="Arial, sans-serif" font-size="12" fill="#6b7280">0.40</text>
<line x1="742.0" y1="60" x2="742.0" y2="234" stroke="#e5e7eb" stroke-width="1"/>
<text x="742.0" y="254" text-anchor="middle" font-family="Arial, sans-serif" font-size="12" fill="#6b7280">0.60</text>
<line x1="886.0" y1="60" x2="886.0" y2="234" stroke="#e5e7eb" stroke-width="1"/>
<text x="886.0" y="254" text-anchor="middle" font-family="Arial, sans-serif" font-size="12" fill="#6b7280">0.80</text>
<line x1="1030.0" y1="60" x2="1030.0" y2="234" stroke="#e5e7eb" stroke-width="1"/>
<text x="1030.0" y="254" text-anchor="middle" font-family="Arial, sans-serif" font-size="12" fill="#6b7280">1.00</text>
<text x="296" y="99" text-anchor="end" font-family="Arial, sans-serif" font-size="14" fill="#111827">top1</text>
<rect x="310" y="83" width="107.6" height="20" rx="4" fill="#2563eb"/>
<text x="425.6" y="99" font-family="Arial, sans-serif" font-size="13" fill="#374151">0.1494</text>
<text x="296" y="133" text-anchor="end" font-family="Arial, sans-serif" font-size="14" fill="#111827">top5</text>
<rect x="310" y="117" width="271.0" height="20" rx="4" fill="#059669"/>
<text x="589.0" y="133" font-family="Arial, sans-serif" font-size="13" fill="#374151">0.3764</text>
<text x="296" y="167" text-anchor="end" font-family="Arial, sans-serif" font-size="14" fill="#111827">top10</text>
<rect x="310" y="151" width="341.4" height="20" rx="4" fill="#ea580c"/>
<text x="659.4" y="167" font-family="Arial, sans-serif" font-size="13" fill="#374151">0.4741</text>
<text x="296" y="201" text-anchor="end" font-family="Arial, sans-serif" font-size="14" fill="#111827">MRR</text>
<rect x="310" y="185" width="189.6" height="20" rx="4" fill="#7b5d12"/>
<text x="507.6" y="201" font-family="Arial, sans-serif" font-size="13" fill="#374151">0.2634</text>
</svg>