<svg xmlns="http://www.w3.org/2000/svg" width="1100" height="284" viewBox="0 0 1100 284">
<rect width="100%" height="100%" fill="#020502"/>
<rect x="18" y="18" width="1064" height="248" rx="18" fill="#050905" stroke="#ccffa0" stroke-opacity="0.25"/>
<text x="32" y="42" font-family="Inter Tight, Arial, sans-serif" font-size="26" font-weight="800" fill="#f4f8ef">Cross-Modal Retrieval</text>
<text x="310" y="260" font-family="Space Grotesk, Arial, sans-serif" font-size="13" fill="#a5afa2">score</text>
<line x1="310.0" y1="60" x2="310.0" y2="234" stroke="#ccffa0" stroke-opacity="0.13" stroke-width="1"/>
<text x="310.0" y="254" text-anchor="middle" font-family="Space Grotesk, Arial, sans-serif" font-size="12" fill="#a5afa2">0.00</text>
<line x1="454.0" y1="60" x2="454.0" y2="234" stroke="#ccffa0" stroke-opacity="0.13" stroke-width="1"/>
<text x="454.0" y="254" text-anchor="middle" font-family="Space Grotesk, Arial, sans-serif" font-size="12" fill="#a5afa2">0.20</text>
<line x1="598.0" y1="60" x2="598.0" y2="234" stroke="#ccffa0" stroke-opacity="0.13" stroke-width="1"/>
<text x="598.0" y="254" text-anchor="middle" font-family="Space Grotesk, Arial, sans-serif" font-size="12" fill="#a5afa2">0.40</text>
<line x1="742.0" y1="60" x2="742.0" y2="234" stroke="#ccffa0" stroke-opacity="0.13" stroke-width="1"/>
<text x="742.0" y="254" text-anchor="middle" font-family="Space Grotesk, Arial, sans-serif" font-size="12" fill="#a5afa2">0.60</text>
<line x1="886.0" y1="60" x2="886.0" y2="234" stroke="#ccffa0" stroke-opacity="0.13" stroke-width="1"/>
<text x="886.0" y="254" text-anchor="middle" font-family="Space Grotesk, Arial, sans-serif" font-size="12" fill="#a5afa2">0.80</text>
<line x1="1030.0" y1="60" x2="1030.0" y2="234" stroke="#ccffa0" stroke-opacity="0.13" stroke-width="1"/>
<text x="1030.0" y="254" text-anchor="middle" font-family="Space Grotesk, Arial, sans-serif" font-size="12" fill="#a5afa2">1.00</text>
<text x="296" y="99" text-anchor="end" font-family="Space Grotesk, Arial, sans-serif" font-size="14" fill="#dce8d7">top1</text>
<rect x="310" y="83" width="117.9" height="20" rx="4" fill="#ccffa0"/>
<text x="435.9" y="99" font-family="Space Grotesk, Arial, sans-serif" font-size="13" fill="#f4f8ef">0.1638</text>
<text x="296" y="133" text-anchor="end" font-family="Space Grotesk, Arial, sans-serif" font-size="14" fill="#dce8d7">top5</text>
<rect x="310" y="117" width="264.8" height="20" rx="4" fill="#ffffff"/>
<text x="582.8" y="133" font-family="Space Grotesk, Arial, sans-serif" font-size="13" fill="#f4f8ef">0.3678</text>
<text x="296" y="167" text-anchor="end" font-family="Space Grotesk, Arial, sans-serif" font-size="14" fill="#dce8d7">top10</text>
<rect x="310" y="151" width="339.3" height="20" rx="4" fill="#7ae5c3"/>
<text x="657.3" y="167" font-family="Space Grotesk, Arial, sans-serif" font-size="13" fill="#f4f8ef">0.4713</text>
<text x="296" y="201" text-anchor="end" font-family="Space Grotesk, Arial, sans-serif" font-size="14" fill="#dce8d7">MRR</text>
<rect x="310" y="185" width="193.9" height="20" rx="4" fill="#d8f4a5"/>
<text x="511.9" y="201" font-family="Space Grotesk, Arial, sans-serif" font-size="13" fill="#f4f8ef">0.2693</text>
</svg>