<svg xmlns="http://www.w3.org/2000/svg" width="1100" height="556" viewBox="0 0 1100 556">
<rect width="100%" height="100%" fill="#ffffff"/>
<text x="32" y="42" font-family="Arial, sans-serif" font-size="26" font-weight="700" fill="#111827">Ropedia Xperience-10M Suite: Main Scores</text>
<text x="310" y="532" font-family="Arial, sans-serif" font-size="13" fill="#6b7280">score</text>
<line x1="310.0" y1="60" x2="310.0" y2="506" stroke="#e5e7eb" stroke-width="1"/>
<text x="310.0" y="526" text-anchor="middle" font-family="Arial, sans-serif" font-size="12" fill="#6b7280">0.00</text>
<line x1="454.0" y1="60" x2="454.0" y2="506" stroke="#e5e7eb" stroke-width="1"/>
<text x="454.0" y="526" text-anchor="middle" font-family="Arial, sans-serif" font-size="12" fill="#6b7280">0.20</text>
<line x1="598.0" y1="60" x2="598.0" y2="506" stroke="#e5e7eb" stroke-width="1"/>
<text x="598.0" y="526" text-anchor="middle" font-family="Arial, sans-serif" font-size="12" fill="#6b7280">0.40</text>
<line x1="742.0" y1="60" x2="742.0" y2="506" stroke="#e5e7eb" stroke-width="1"/>
<text x="742.0" y="526" text-anchor="middle" font-family="Arial, sans-serif" font-size="12" fill="#6b7280">0.60</text>
<line x1="886.0" y1="60" x2="886.0" y2="506" stroke="#e5e7eb" stroke-width="1"/>
<text x="886.0" y="526" text-anchor="middle" font-family="Arial, sans-serif" font-size="12" fill="#6b7280">0.80</text>
<line x1="1030.0" y1="60" x2="1030.0" y2="506" stroke="#e5e7eb" stroke-width="1"/>
<text x="1030.0" y="526" text-anchor="middle" font-family="Arial, sans-serif" font-size="12" fill="#6b7280">1.00</text>
<text x="296" y="99" text-anchor="end" font-family="Arial, sans-serif" font-size="14" fill="#111827">timeline_action</text>
<rect x="310" y="83" width="36.0" height="20" rx="4" fill="#2563eb"/>
<text x="354.0" y="99" font-family="Arial, sans-serif" font-size="13" fill="#374151">0.0500</text>
<text x="296" y="133" text-anchor="end" font-family="Arial, sans-serif" font-size="14" fill="#111827">timeline_subtask</text>
<rect x="310" y="117" width="35.7" height="20" rx="4" fill="#059669"/>
<text x="353.7" y="133" font-family="Arial, sans-serif" font-size="13" fill="#374151">0.0495</text>
<text x="296" y="167" text-anchor="end" font-family="Arial, sans-serif" font-size="14" fill="#111827">transition_detection</text>
<rect x="310" y="151" width="471.7" height="20" rx="4" fill="#ea580c"/>
<text x="789.7" y="167" font-family="Arial, sans-serif" font-size="13" fill="#374151">0.6552</text>
<text x="296" y="201" text-anchor="end" font-family="Arial, sans-serif" font-size="14" fill="#111827">next_action</text>
<rect x="310" y="185" width="42.7" height="20" rx="4" fill="#7b5d12"/>
<text x="360.7" y="201" font-family="Arial, sans-serif" font-size="13" fill="#374151">0.0593</text>
<text x="296" y="235" text-anchor="end" font-family="Arial, sans-serif" font-size="14" fill="#111827">hand_trajectory_forecast</text>
<rect x="310" y="219" width="0.0" height="20" rx="4" fill="#0891b2"/>
<text x="318.0" y="235" font-family="Arial, sans-serif" font-size="13" fill="#374151">0.0000</text>
<text x="296" y="269" text-anchor="end" font-family="Arial, sans-serif" font-size="14" fill="#111827">contact_prediction</text>
<rect x="310" y="253" width="720.0" height="20" rx="4" fill="#dc2626"/>
<text x="1038.0" y="269" font-family="Arial, sans-serif" font-size="13" fill="#374151">1.0000</text>
<text x="296" y="303" text-anchor="end" font-family="Arial, sans-serif" font-size="14" fill="#111827">object_relevance</text>
<rect x="310" y="287" width="46.3" height="20" rx="4" fill="#2563eb"/>
<text x="364.3" y="303" font-family="Arial, sans-serif" font-size="13" fill="#374151">0.0643</text>
<text x="296" y="337" text-anchor="end" font-family="Arial, sans-serif" font-size="14" fill="#111827">caption_grounding</text>
<rect x="310" y="321" width="8.3" height="20" rx="4" fill="#059669"/>
<text x="326.3" y="337" font-family="Arial, sans-serif" font-size="13" fill="#374151">0.0115</text>
<text x="296" y="371" text-anchor="end" font-family="Arial, sans-serif" font-size="14" fill="#111827">cross_modal_retrieval</text>
<rect x="310" y="355" width="271.0" height="20" rx="4" fill="#ea580c"/>
<text x="589.0" y="371" font-family="Arial, sans-serif" font-size="13" fill="#374151">0.3764</text>
<text x="296" y="405" text-anchor="end" font-family="Arial, sans-serif" font-size="14" fill="#111827">modality_reconstruction</text>
<rect x="310" y="389" width="0.0" height="20" rx="4" fill="#7b5d12"/>
<text x="318.0" y="405" font-family="Arial, sans-serif" font-size="13" fill="#374151">0.0000</text>
<text x="296" y="439" text-anchor="end" font-family="Arial, sans-serif" font-size="14" fill="#111827">temporal_order</text>
<rect x="310" y="423" width="395.1" height="20" rx="4" fill="#0891b2"/>
<text x="713.1" y="439" font-family="Arial, sans-serif" font-size="13" fill="#374151">0.5487</text>
<text x="296" y="473" text-anchor="end" font-family="Arial, sans-serif" font-size="14" fill="#111827">misalignment_detection</text>
<rect x="310" y="457" width="350.3" height="20" rx="4" fill="#dc2626"/>
<text x="668.3" y="473" font-family="Arial, sans-serif" font-size="13" fill="#374151">0.4866</text>
</svg>