<svg xmlns="http://www.w3.org/2000/svg" width="1100" height="556" viewBox="0 0 1100 556">
<rect width="100%" height="100%" fill="#020502"/>
<rect x="18" y="18" width="1064" height="520" rx="18" fill="#050905" stroke="#ccffa0" stroke-opacity="0.25"/>
<text x="32" y="42" font-family="Inter Tight, Arial, sans-serif" font-size="26" font-weight="800" fill="#f4f8ef">Ropedia Xperience-10M Suite: Neural MLP Main Scores</text>
<text x="310" y="532" font-family="Space Grotesk, Arial, sans-serif" font-size="13" fill="#a5afa2">score</text>
<line x1="310.0" y1="60" x2="310.0" y2="506" stroke="#ccffa0" stroke-opacity="0.13" stroke-width="1"/>
<text x="310.0" y="526" text-anchor="middle" font-family="Space Grotesk, Arial, sans-serif" font-size="12" fill="#a5afa2">0.00</text>
<line x1="454.0" y1="60" x2="454.0" y2="506" stroke="#ccffa0" stroke-opacity="0.13" stroke-width="1"/>
<text x="454.0" y="526" text-anchor="middle" font-family="Space Grotesk, Arial, sans-serif" font-size="12" fill="#a5afa2">0.20</text>
<line x1="598.0" y1="60" x2="598.0" y2="506" stroke="#ccffa0" stroke-opacity="0.13" stroke-width="1"/>
<text x="598.0" y="526" text-anchor="middle" font-family="Space Grotesk, Arial, sans-serif" font-size="12" fill="#a5afa2">0.40</text>
<line x1="742.0" y1="60" x2="742.0" y2="506" stroke="#ccffa0" stroke-opacity="0.13" stroke-width="1"/>
<text x="742.0" y="526" text-anchor="middle" font-family="Space Grotesk, Arial, sans-serif" font-size="12" fill="#a5afa2">0.60</text>
<line x1="886.0" y1="60" x2="886.0" y2="506" stroke="#ccffa0" stroke-opacity="0.13" stroke-width="1"/>
<text x="886.0" y="526" text-anchor="middle" font-family="Space Grotesk, Arial, sans-serif" font-size="12" fill="#a5afa2">0.80</text>
<line x1="1030.0" y1="60" x2="1030.0" y2="506" stroke="#ccffa0" stroke-opacity="0.13" stroke-width="1"/>
<text x="1030.0" y="526" text-anchor="middle" font-family="Space Grotesk, Arial, sans-serif" font-size="12" fill="#a5afa2">1.00</text>
<text x="296" y="99" text-anchor="end" font-family="Space Grotesk, Arial, sans-serif" font-size="14" fill="#dce8d7">timeline_action</text>
<rect x="310" y="83" width="10.7" height="20" rx="4" fill="#ccffa0"/>
<text x="328.7" y="99" font-family="Space Grotesk, Arial, sans-serif" font-size="13" fill="#f4f8ef">0.0148</text>
<text x="296" y="133" text-anchor="end" font-family="Space Grotesk, Arial, sans-serif" font-size="14" fill="#dce8d7">timeline_subtask</text>
<rect x="310" y="117" width="20.2" height="20" rx="4" fill="#ffffff"/>
<text x="338.2" y="133" font-family="Space Grotesk, Arial, sans-serif" font-size="13" fill="#f4f8ef">0.0281</text>
<text x="296" y="167" text-anchor="end" font-family="Space Grotesk, Arial, sans-serif" font-size="14" fill="#dce8d7">transition_detection</text>
<rect x="310" y="151" width="422.1" height="20" rx="4" fill="#7ae5c3"/>
<text x="740.1" y="167" font-family="Space Grotesk, Arial, sans-serif" font-size="13" fill="#f4f8ef">0.5862</text>
<text x="296" y="201" text-anchor="end" font-family="Space Grotesk, Arial, sans-serif" font-size="14" fill="#dce8d7">next_action</text>
<rect x="310" y="185" width="30.1" height="20" rx="4" fill="#d8f4a5"/>
<text x="348.1" y="201" font-family="Space Grotesk, Arial, sans-serif" font-size="13" fill="#f4f8ef">0.0419</text>
<text x="296" y="235" text-anchor="end" font-family="Space Grotesk, Arial, sans-serif" font-size="14" fill="#dce8d7">hand_trajectory_forecast</text>
<rect x="310" y="219" width="314.4" height="20" rx="4" fill="#9bdfff"/>
<text x="632.4" y="235" font-family="Space Grotesk, Arial, sans-serif" font-size="13" fill="#f4f8ef">0.4367</text>
<text x="296" y="269" text-anchor="end" font-family="Space Grotesk, Arial, sans-serif" font-size="14" fill="#dce8d7">contact_prediction</text>
<rect x="310" y="253" width="720.0" height="20" rx="4" fill="#ff8f7a"/>
<text x="1038.0" y="269" font-family="Space Grotesk, Arial, sans-serif" font-size="13" fill="#f4f8ef">1.0000</text>
<text x="296" y="303" text-anchor="end" font-family="Space Grotesk, Arial, sans-serif" font-size="14" fill="#dce8d7">object_relevance</text>
<rect x="310" y="287" width="35.2" height="20" rx="4" fill="#ccffa0"/>
<text x="353.2" y="303" font-family="Space Grotesk, Arial, sans-serif" font-size="13" fill="#f4f8ef">0.0489</text>
<text x="296" y="337" text-anchor="end" font-family="Space Grotesk, Arial, sans-serif" font-size="14" fill="#dce8d7">caption_grounding</text>
<rect x="310" y="321" width="10.3" height="20" rx="4" fill="#ffffff"/>
<text x="328.3" y="337" font-family="Space Grotesk, Arial, sans-serif" font-size="13" fill="#f4f8ef">0.0144</text>
<text x="296" y="371" text-anchor="end" font-family="Space Grotesk, Arial, sans-serif" font-size="14" fill="#dce8d7">cross_modal_retrieval</text>
<rect x="310" y="355" width="142.8" height="20" rx="4" fill="#7ae5c3"/>
<text x="460.8" y="371" font-family="Space Grotesk, Arial, sans-serif" font-size="13" fill="#f4f8ef">0.1983</text>
<text x="296" y="405" text-anchor="end" font-family="Space Grotesk, Arial, sans-serif" font-size="14" fill="#dce8d7">modality_reconstruction</text>
<rect x="310" y="389" width="0.0" height="20" rx="4" fill="#d8f4a5"/>
<text x="318.0" y="405" font-family="Space Grotesk, Arial, sans-serif" font-size="13" fill="#f4f8ef">0.0000</text>
<text x="296" y="439" text-anchor="end" font-family="Space Grotesk, Arial, sans-serif" font-size="14" fill="#dce8d7">temporal_order</text>
<rect x="310" y="423" width="613.5" height="20" rx="4" fill="#9bdfff"/>
<text x="931.5" y="439" font-family="Space Grotesk, Arial, sans-serif" font-size="13" fill="#f4f8ef">0.8520</text>
<text x="296" y="473" text-anchor="end" font-family="Space Grotesk, Arial, sans-serif" font-size="14" fill="#dce8d7">misalignment_detection</text>
<rect x="310" y="457" width="515.0" height="20" rx="4" fill="#ff8f7a"/>
<text x="833.0" y="473" font-family="Space Grotesk, Arial, sans-serif" font-size="13" fill="#f4f8ef">0.7153</text>
</svg>