<svg xmlns="http://www.w3.org/2000/svg" width="1100" height="964" viewBox="0 0 1100 964">
<rect width="100%" height="100%" fill="#020502"/>
<rect x="18" y="18" width="1064" height="928" rx="18" fill="#050905" stroke="#ccffa0" stroke-opacity="0.25"/>
<text x="32" y="42" font-family="Inter Tight, Arial, sans-serif" font-size="26" font-weight="800" fill="#f4f8ef">Episode Task Scores: Minimal vs Neural MLP</text>
<text x="310" y="940" font-family="Space Grotesk, Arial, sans-serif" font-size="13" fill="#a5afa2">score</text>
<line x1="310.0" y1="60" x2="310.0" y2="914" stroke="#ccffa0" stroke-opacity="0.13" stroke-width="1"/>
<text x="310.0" y="934" text-anchor="middle" font-family="Space Grotesk, Arial, sans-serif" font-size="12" fill="#a5afa2">0.00</text>
<line x1="454.0" y1="60" x2="454.0" y2="914" stroke="#ccffa0" stroke-opacity="0.13" stroke-width="1"/>
<text x="454.0" y="934" text-anchor="middle" font-family="Space Grotesk, Arial, sans-serif" font-size="12" fill="#a5afa2">0.20</text>
<line x1="598.0" y1="60" x2="598.0" y2="914" stroke="#ccffa0" stroke-opacity="0.13" stroke-width="1"/>
<text x="598.0" y="934" text-anchor="middle" font-family="Space Grotesk, Arial, sans-serif" font-size="12" fill="#a5afa2">0.40</text>
<line x1="742.0" y1="60" x2="742.0" y2="914" stroke="#ccffa0" stroke-opacity="0.13" stroke-width="1"/>
<text x="742.0" y="934" text-anchor="middle" font-family="Space Grotesk, Arial, sans-serif" font-size="12" fill="#a5afa2">0.60</text>
<line x1="886.0" y1="60" x2="886.0" y2="914" stroke="#ccffa0" stroke-opacity="0.13" stroke-width="1"/>
<text x="886.0" y="934" text-anchor="middle" font-family="Space Grotesk, Arial, sans-serif" font-size="12" fill="#a5afa2">0.80</text>
<line x1="1030.0" y1="60" x2="1030.0" y2="914" stroke="#ccffa0" stroke-opacity="0.13" stroke-width="1"/>
<text x="1030.0" y="934" text-anchor="middle" font-family="Space Grotesk, Arial, sans-serif" font-size="12" fill="#a5afa2">1.00</text>
<text x="296" y="99" text-anchor="end" font-family="Space Grotesk, Arial, sans-serif" font-size="14" fill="#dce8d7">timeline_action minimal</text>
<rect x="310" y="83" width="36.0" height="20" rx="4" fill="#ccffa0"/>
<text x="354.0" y="99" font-family="Space Grotesk, Arial, sans-serif" font-size="13" fill="#f4f8ef">0.0500</text>
<text x="296" y="133" text-anchor="end" font-family="Space Grotesk, Arial, sans-serif" font-size="14" fill="#dce8d7">timeline_action neural</text>
<rect x="310" y="117" width="18.9" height="20" rx="4" fill="#ffffff"/>
<text x="336.9" y="133" font-family="Space Grotesk, Arial, sans-serif" font-size="13" fill="#f4f8ef">0.0263</text>
<text x="296" y="167" text-anchor="end" font-family="Space Grotesk, Arial, sans-serif" font-size="14" fill="#dce8d7">timeline_subtask minimal</text>
<rect x="310" y="151" width="35.7" height="20" rx="4" fill="#7ae5c3"/>
<text x="353.7" y="167" font-family="Space Grotesk, Arial, sans-serif" font-size="13" fill="#f4f8ef">0.0495</text>
<text x="296" y="201" text-anchor="end" font-family="Space Grotesk, Arial, sans-serif" font-size="14" fill="#dce8d7">timeline_subtask neural</text>
<rect x="310" y="185" width="12.6" height="20" rx="4" fill="#d8f4a5"/>
<text x="330.6" y="201" font-family="Space Grotesk, Arial, sans-serif" font-size="13" fill="#f4f8ef">0.0175</text>
<text x="296" y="235" text-anchor="end" font-family="Space Grotesk, Arial, sans-serif" font-size="14" fill="#dce8d7">transition_detection minimal</text>
<rect x="310" y="219" width="471.7" height="20" rx="4" fill="#9bdfff"/>
<text x="789.7" y="235" font-family="Space Grotesk, Arial, sans-serif" font-size="13" fill="#f4f8ef">0.6552</text>
<text x="296" y="269" text-anchor="end" font-family="Space Grotesk, Arial, sans-serif" font-size="14" fill="#dce8d7">transition_detection neural</text>
<rect x="310" y="253" width="466.9" height="20" rx="4" fill="#ff8f7a"/>
<text x="784.9" y="269" font-family="Space Grotesk, Arial, sans-serif" font-size="13" fill="#f4f8ef">0.6485</text>
<text x="296" y="303" text-anchor="end" font-family="Space Grotesk, Arial, sans-serif" font-size="14" fill="#dce8d7">next_action minimal</text>
<rect x="310" y="287" width="42.7" height="20" rx="4" fill="#ccffa0"/>
<text x="360.7" y="303" font-family="Space Grotesk, Arial, sans-serif" font-size="13" fill="#f4f8ef">0.0593</text>
<text x="296" y="337" text-anchor="end" font-family="Space Grotesk, Arial, sans-serif" font-size="14" fill="#dce8d7">next_action neural</text>
<rect x="310" y="321" width="16.9" height="20" rx="4" fill="#ffffff"/>
<text x="334.9" y="337" font-family="Space Grotesk, Arial, sans-serif" font-size="13" fill="#f4f8ef">0.0235</text>
<text x="296" y="371" text-anchor="end" font-family="Space Grotesk, Arial, sans-serif" font-size="14" fill="#dce8d7">hand_trajectory_forecast minimal</text>
<rect x="310" y="355" width="0.0" height="20" rx="4" fill="#7ae5c3"/>
<text x="318.0" y="371" font-family="Space Grotesk, Arial, sans-serif" font-size="13" fill="#f4f8ef">0.0000</text>
<text x="296" y="405" text-anchor="end" font-family="Space Grotesk, Arial, sans-serif" font-size="14" fill="#dce8d7">hand_trajectory_forecast neural</text>
<rect x="310" y="389" width="288.2" height="20" rx="4" fill="#d8f4a5"/>
<text x="606.2" y="405" font-family="Space Grotesk, Arial, sans-serif" font-size="13" fill="#f4f8ef">0.4002</text>
<text x="296" y="439" text-anchor="end" font-family="Space Grotesk, Arial, sans-serif" font-size="14" fill="#dce8d7">contact_prediction minimal</text>
<rect x="310" y="423" width="720.0" height="20" rx="4" fill="#9bdfff"/>
<text x="1038.0" y="439" font-family="Space Grotesk, Arial, sans-serif" font-size="13" fill="#f4f8ef">1.0000</text>
<text x="296" y="473" text-anchor="end" font-family="Space Grotesk, Arial, sans-serif" font-size="14" fill="#dce8d7">contact_prediction neural</text>
<rect x="310" y="457" width="720.0" height="20" rx="4" fill="#ff8f7a"/>
<text x="1038.0" y="473" font-family="Space Grotesk, Arial, sans-serif" font-size="13" fill="#f4f8ef">1.0000</text>
<text x="296" y="507" text-anchor="end" font-family="Space Grotesk, Arial, sans-serif" font-size="14" fill="#dce8d7">object_relevance minimal</text>
<rect x="310" y="491" width="46.3" height="20" rx="4" fill="#ccffa0"/>
<text x="364.3" y="507" font-family="Space Grotesk, Arial, sans-serif" font-size="13" fill="#f4f8ef">0.0643</text>
<text x="296" y="541" text-anchor="end" font-family="Space Grotesk, Arial, sans-serif" font-size="14" fill="#dce8d7">object_relevance neural</text>
<rect x="310" y="525" width="35.7" height="20" rx="4" fill="#ffffff"/>
<text x="353.7" y="541" font-family="Space Grotesk, Arial, sans-serif" font-size="13" fill="#f4f8ef">0.0496</text>
<text x="296" y="575" text-anchor="end" font-family="Space Grotesk, Arial, sans-serif" font-size="14" fill="#dce8d7">caption_grounding minimal</text>
<rect x="310" y="559" width="8.3" height="20" rx="4" fill="#7ae5c3"/>
<text x="326.3" y="575" font-family="Space Grotesk, Arial, sans-serif" font-size="13" fill="#f4f8ef">0.0115</text>
<text x="296" y="609" text-anchor="end" font-family="Space Grotesk, Arial, sans-serif" font-size="14" fill="#dce8d7">caption_grounding neural</text>
<rect x="310" y="593" width="12.4" height="20" rx="4" fill="#d8f4a5"/>
<text x="330.4" y="609" font-family="Space Grotesk, Arial, sans-serif" font-size="13" fill="#f4f8ef">0.0172</text>
<text x="296" y="643" text-anchor="end" font-family="Space Grotesk, Arial, sans-serif" font-size="14" fill="#dce8d7">cross_modal_retrieval minimal</text>
<rect x="310" y="627" width="271.0" height="20" rx="4" fill="#9bdfff"/>
<text x="589.0" y="643" font-family="Space Grotesk, Arial, sans-serif" font-size="13" fill="#f4f8ef">0.3764</text>
<text x="296" y="677" text-anchor="end" font-family="Space Grotesk, Arial, sans-serif" font-size="14" fill="#dce8d7">cross_modal_retrieval neural</text>
<rect x="310" y="661" width="155.2" height="20" rx="4" fill="#ff8f7a"/>
<text x="473.2" y="677" font-family="Space Grotesk, Arial, sans-serif" font-size="13" fill="#f4f8ef">0.2155</text>
<text x="296" y="711" text-anchor="end" font-family="Space Grotesk, Arial, sans-serif" font-size="14" fill="#dce8d7">modality_reconstruction minimal</text>
<rect x="310" y="695" width="0.0" height="20" rx="4" fill="#ccffa0"/>
<text x="318.0" y="711" font-family="Space Grotesk, Arial, sans-serif" font-size="13" fill="#f4f8ef">0.0000</text>
<text x="296" y="745" text-anchor="end" font-family="Space Grotesk, Arial, sans-serif" font-size="14" fill="#dce8d7">modality_reconstruction neural</text>
<rect x="310" y="729" width="0.0" height="20" rx="4" fill="#ffffff"/>
<text x="318.0" y="745" font-family="Space Grotesk, Arial, sans-serif" font-size="13" fill="#f4f8ef">0.0000</text>
<text x="296" y="779" text-anchor="end" font-family="Space Grotesk, Arial, sans-serif" font-size="14" fill="#dce8d7">temporal_order minimal</text>
<rect x="310" y="763" width="395.1" height="20" rx="4" fill="#7ae5c3"/>
<text x="713.1" y="779" font-family="Space Grotesk, Arial, sans-serif" font-size="13" fill="#f4f8ef">0.5487</text>
<text x="296" y="813" text-anchor="end" font-family="Space Grotesk, Arial, sans-serif" font-size="14" fill="#dce8d7">temporal_order neural</text>
<rect x="310" y="797" width="627.7" height="20" rx="4" fill="#d8f4a5"/>
<text x="945.7" y="813" font-family="Space Grotesk, Arial, sans-serif" font-size="13" fill="#f4f8ef">0.8718</text>
<text x="296" y="847" text-anchor="end" font-family="Space Grotesk, Arial, sans-serif" font-size="14" fill="#dce8d7">misalignment_detection minimal</text>
<rect x="310" y="831" width="350.3" height="20" rx="4" fill="#9bdfff"/>
<text x="668.3" y="847" font-family="Space Grotesk, Arial, sans-serif" font-size="13" fill="#f4f8ef">0.4866</text>
<text x="296" y="881" text-anchor="end" font-family="Space Grotesk, Arial, sans-serif" font-size="14" fill="#dce8d7">misalignment_detection neural</text>
<rect x="310" y="865" width="528.1" height="20" rx="4" fill="#ff8f7a"/>
<text x="846.1" y="881" font-family="Space Grotesk, Arial, sans-serif" font-size="13" fill="#f4f8ef">0.7335</text>
</svg>