<svg xmlns="http://www.w3.org/2000/svg" width="1100" height="726" viewBox="0 0 1100 726">
<rect width="100%" height="100%" fill="#ffffff"/>
<text x="32" y="42" font-family="Arial, sans-serif" font-size="26" font-weight="700" fill="#111827">All-Modality Feature Blocks</text>
<text x="310" y="702" font-family="Arial, sans-serif" font-size="13" fill="#6b7280">feature dimensions</text>
<line x1="310.0" y1="60" x2="310.0" y2="676" stroke="#e5e7eb" stroke-width="1"/>
<text x="310.0" y="696" text-anchor="middle" font-family="Arial, sans-serif" font-size="12" fill="#6b7280">0.00</text>
<line x1="454.0" y1="60" x2="454.0" y2="676" stroke="#e5e7eb" stroke-width="1"/>
<text x="454.0" y="696" text-anchor="middle" font-family="Arial, sans-serif" font-size="12" fill="#6b7280">235.87</text>
<line x1="598.0" y1="60" x2="598.0" y2="676" stroke="#e5e7eb" stroke-width="1"/>
<text x="598.0" y="696" text-anchor="middle" font-family="Arial, sans-serif" font-size="12" fill="#6b7280">471.74</text>
<line x1="742.0" y1="60" x2="742.0" y2="676" stroke="#e5e7eb" stroke-width="1"/>
<text x="742.0" y="696" text-anchor="middle" font-family="Arial, sans-serif" font-size="12" fill="#6b7280">707.62</text>
<line x1="886.0" y1="60" x2="886.0" y2="676" stroke="#e5e7eb" stroke-width="1"/>
<text x="886.0" y="696" text-anchor="middle" font-family="Arial, sans-serif" font-size="12" fill="#6b7280">943.49</text>
<line x1="1030.0" y1="60" x2="1030.0" y2="676" stroke="#e5e7eb" stroke-width="1"/>
<text x="1030.0" y="696" text-anchor="middle" font-family="Arial, sans-serif" font-size="12" fill="#6b7280">1179.36</text>
<text x="296" y="99" text-anchor="end" font-family="Arial, sans-serif" font-size="14" fill="#111827">hand_left_joints</text>
<rect x="310" y="83" width="269.2" height="20" rx="4" fill="#2563eb"/>
<text x="587.2" y="99" font-family="Arial, sans-serif" font-size="13" fill="#374151">441.0000</text>
<text x="296" y="133" text-anchor="end" font-family="Arial, sans-serif" font-size="14" fill="#111827">hand_right_joints</text>
<rect x="310" y="117" width="269.2" height="20" rx="4" fill="#059669"/>
<text x="587.2" y="133" font-family="Arial, sans-serif" font-size="13" fill="#374151">441.0000</text>
<text x="296" y="167" text-anchor="end" font-family="Arial, sans-serif" font-size="14" fill="#111827">body_joints</text>
<rect x="310" y="151" width="666.7" height="20" rx="4" fill="#ea580c"/>
<text x="984.7" y="167" font-family="Arial, sans-serif" font-size="13" fill="#374151">1092.0000</text>
<text x="296" y="201" text-anchor="end" font-family="Arial, sans-serif" font-size="14" fill="#111827">body_contacts</text>
<rect x="310" y="185" width="89.7" height="20" rx="4" fill="#7b5d12"/>
<text x="407.7" y="201" font-family="Arial, sans-serif" font-size="13" fill="#374151">147.0000</text>
<text x="296" y="235" text-anchor="end" font-family="Arial, sans-serif" font-size="14" fill="#111827">camera_translation</text>
<rect x="310" y="219" width="12.8" height="20" rx="4" fill="#0891b2"/>
<text x="330.8" y="235" font-family="Arial, sans-serif" font-size="13" fill="#374151">21.0000</text>
<text x="296" y="269" text-anchor="end" font-family="Arial, sans-serif" font-size="14" fill="#111827">camera_rotation_matrix</text>
<rect x="310" y="253" width="38.5" height="20" rx="4" fill="#dc2626"/>
<text x="356.5" y="269" font-family="Arial, sans-serif" font-size="13" fill="#374151">63.0000</text>
<text x="296" y="303" text-anchor="end" font-family="Arial, sans-serif" font-size="14" fill="#111827">imu_accel_gyro</text>
<rect x="310" y="287" width="25.6" height="20" rx="4" fill="#2563eb"/>
<text x="343.6" y="303" font-family="Arial, sans-serif" font-size="13" fill="#374151">42.0000</text>
<text x="296" y="337" text-anchor="end" font-family="Arial, sans-serif" font-size="14" fill="#111827">depth_confidence</text>
<rect x="310" y="321" width="598.3" height="20" rx="4" fill="#059669"/>
<text x="916.3" y="337" font-family="Arial, sans-serif" font-size="13" fill="#374151">980.0000</text>
<text x="296" y="371" text-anchor="end" font-family="Arial, sans-serif" font-size="14" fill="#111827">video_fisheye_cam0</text>
<rect x="310" y="355" width="418.8" height="20" rx="4" fill="#ea580c"/>
<text x="736.8" y="371" font-family="Arial, sans-serif" font-size="13" fill="#374151">686.0000</text>
<text x="296" y="405" text-anchor="end" font-family="Arial, sans-serif" font-size="14" fill="#111827">video_fisheye_cam1</text>
<rect x="310" y="389" width="418.8" height="20" rx="4" fill="#7b5d12"/>
<text x="736.8" y="405" font-family="Arial, sans-serif" font-size="13" fill="#374151">686.0000</text>
<text x="296" y="439" text-anchor="end" font-family="Arial, sans-serif" font-size="14" fill="#111827">video_fisheye_cam2</text>
<rect x="310" y="423" width="418.8" height="20" rx="4" fill="#0891b2"/>
<text x="736.8" y="439" font-family="Arial, sans-serif" font-size="13" fill="#374151">686.0000</text>
<text x="296" y="473" text-anchor="end" font-family="Arial, sans-serif" font-size="14" fill="#111827">video_fisheye_cam3</text>
<rect x="310" y="457" width="418.8" height="20" rx="4" fill="#dc2626"/>
<text x="736.8" y="473" font-family="Arial, sans-serif" font-size="13" fill="#374151">686.0000</text>
<text x="296" y="507" text-anchor="end" font-family="Arial, sans-serif" font-size="14" fill="#111827">video_stereo_left</text>
<rect x="310" y="491" width="418.8" height="20" rx="4" fill="#2563eb"/>
<text x="736.8" y="507" font-family="Arial, sans-serif" font-size="13" fill="#374151">686.0000</text>
<text x="296" y="541" text-anchor="end" font-family="Arial, sans-serif" font-size="14" fill="#111827">video_stereo_right</text>
<rect x="310" y="525" width="418.8" height="20" rx="4" fill="#059669"/>
<text x="736.8" y="541" font-family="Arial, sans-serif" font-size="13" fill="#374151">686.0000</text>
<text x="296" y="575" text-anchor="end" font-family="Arial, sans-serif" font-size="14" fill="#111827">caption_objects_interaction_text</text>
<rect x="310" y="559" width="547.0" height="20" rx="4" fill="#ea580c"/>
<text x="865.0" y="575" font-family="Arial, sans-serif" font-size="13" fill="#374151">896.0000</text>
<text x="296" y="609" text-anchor="end" font-family="Arial, sans-serif" font-size="14" fill="#111827">slam_point_cloud</text>
<rect x="310" y="593" width="13.4" height="20" rx="4" fill="#7b5d12"/>
<text x="331.4" y="609" font-family="Arial, sans-serif" font-size="13" fill="#374151">22.0000</text>
<text x="296" y="643" text-anchor="end" font-family="Arial, sans-serif" font-size="14" fill="#111827">calibration</text>
<rect x="310" y="627" width="71.4" height="20" rx="4" fill="#0891b2"/>
<text x="389.4" y="643" font-family="Arial, sans-serif" font-size="13" fill="#374151">117.0000</text>
</svg>