<svg xmlns="http://www.w3.org/2000/svg" width="1400" height="760" viewBox="0 0 1400 760">
<defs><marker id="arrow" viewBox="0 0 10 10" refX="8" refY="5" markerWidth="7" markerHeight="7" orient="auto-start-reverse"><path d="M 0 0 L 10 5 L 0 10 z" fill="#cbd5e1"/></marker></defs>
<rect width="100%" height="100%" fill="#ffffff"/>
<rect x="0" y="0" width="1400" height="760" fill="#ffffff"/>
<text x="60" y="58" font-family="Arial, sans-serif" font-size="32" font-weight="700" fill="#10141f">Verified Ropedia Episode Pipeline</text>
<text x="60" y="88" font-family="Arial, sans-serif" font-size="16" fill="#5b6475">Generated from committed scripts and metrics; no conceptual placeholder stages.</text>
<line x1="310" y1="176" x2="365" y2="176" stroke="#cbd5e1" stroke-width="3" marker-end="url(#arrow)"/>
<line x1="615" y1="176" x2="670" y2="176" stroke="#cbd5e1" stroke-width="3" marker-end="url(#arrow)"/>
<line x1="920" y1="176" x2="975" y2="176" stroke="#cbd5e1" stroke-width="3" marker-end="url(#arrow)"/>
<line x1="215" y1="242" x2="240" y2="380" stroke="#cbd5e1" stroke-width="3" marker-end="url(#arrow)"/>
<line x1="1095" y1="242" x2="700" y2="380" stroke="#cbd5e1" stroke-width="3" marker-end="url(#arrow)"/>
<line x1="420" y1="464" x2="520" y2="464" stroke="#cbd5e1" stroke-width="3" marker-end="url(#arrow)"/>
<line x1="880" y1="464" x2="980" y2="464" stroke="#cbd5e1" stroke-width="3" marker-end="url(#arrow)"/>
<rect x="60" y="110" width="250" height="132" rx="8" fill="#ffffff" stroke="#dce2ec" stroke-width="2"/>
<rect x="60" y="110" width="8" height="132" rx="4" fill="#1f63e9"/>
<text x="84" y="144" font-family="Arial, sans-serif" font-size="18" font-weight="700" fill="#10141f">1. Raw public sample</text>
<text x="84" y="176" font-family="Arial, sans-serif" font-size="14" fill="#394255">annotation.hdf5</text>
<text x="84" y="198" font-family="Arial, sans-serif" font-size="14" fill="#394255">6 video files</text>
<text x="84" y="220" font-family="Arial, sans-serif" font-size="14" fill="#394255">5,821 aligned frames</text>
<rect x="365" y="110" width="250" height="132" rx="8" fill="#ffffff" stroke="#dce2ec" stroke-width="2"/>
<rect x="365" y="110" width="8" height="132" rx="4" fill="#008b9a"/>
<text x="389" y="144" font-family="Arial, sans-serif" font-size="18" font-weight="700" fill="#10141f">2. HOMIE loader</text>
<text x="389" y="176" font-family="Arial, sans-serif" font-size="14" fill="#394255">mocap, IMU, depth</text>
<text x="389" y="198" font-family="Arial, sans-serif" font-size="14" fill="#394255">caption map</text>
<text x="389" y="220" font-family="Arial, sans-serif" font-size="14" fill="#394255">SLAM and calibration</text>
<rect x="670" y="110" width="250" height="132" rx="8" fill="#ffffff" stroke="#dce2ec" stroke-width="2"/>
<rect x="670" y="110" width="8" height="132" rx="4" fill="#0a7f55"/>
<text x="694" y="144" font-family="Arial, sans-serif" font-size="18" font-weight="700" fill="#10141f">3. Window builder</text>
<text x="694" y="176" font-family="Arial, sans-serif" font-size="14" fill="#394255">20-frame windows</text>
<text x="694" y="198" font-family="Arial, sans-serif" font-size="14" fill="#394255">5-frame stride</text>
<text x="694" y="220" font-family="Arial, sans-serif" font-size="14" fill="#394255">1,161 windows</text>
<rect x="975" y="110" width="300" height="132" rx="8" fill="#ffffff" stroke="#dce2ec" stroke-width="2"/>
<rect x="975" y="110" width="8" height="132" rx="4" fill="#b65b04"/>
<text x="999" y="144" font-family="Arial, sans-serif" font-size="18" font-weight="700" fill="#10141f">4. Feature vector</text>
<text x="999" y="176" font-family="Arial, sans-serif" font-size="14" fill="#394255">8,378 dimensions</text>
<text x="999" y="198" font-family="Arial, sans-serif" font-size="14" fill="#394255">17 named feature blocks</text>
<text x="999" y="220" font-family="Arial, sans-serif" font-size="14" fill="#394255">stored manifest</text>
<rect x="60" y="380" width="360" height="168" rx="8" fill="#ffffff" stroke="#dce2ec" stroke-width="2"/>
<rect x="60" y="380" width="8" height="168" rx="4" fill="#1f63e9"/>
<text x="84" y="414" font-family="Arial, sans-serif" font-size="18" font-weight="700" fill="#10141f">5. Baseline models</text>
<text x="84" y="446" font-family="Arial, sans-serif" font-size="14" fill="#394255">motion-only action/subtask</text>
<text x="84" y="468" font-family="Arial, sans-serif" font-size="14" fill="#394255">all-modality action/subtask</text>
<text x="84" y="490" font-family="Arial, sans-serif" font-size="14" fill="#394255">numpy softmax classifier</text>
<text x="84" y="512" font-family="Arial, sans-serif" font-size="14" fill="#394255">metrics and predictions</text>
<rect x="520" y="380" width="360" height="168" rx="8" fill="#ffffff" stroke="#dce2ec" stroke-width="2"/>
<rect x="520" y="380" width="8" height="168" rx="4" fill="#008b9a"/>
<text x="544" y="414" font-family="Arial, sans-serif" font-size="18" font-weight="700" fill="#10141f">6. Episode task suite</text>
<text x="544" y="446" font-family="Arial, sans-serif" font-size="14" fill="#394255">12 supervised/self-supervised tasks</text>
<text x="544" y="468" font-family="Arial, sans-serif" font-size="14" fill="#394255">chronological split</text>
<text x="544" y="490" font-family="Arial, sans-serif" font-size="14" fill="#394255">retrieval, forecast, alignment</text>
<text x="544" y="512" font-family="Arial, sans-serif" font-size="14" fill="#394255">per-task artifacts</text>
<rect x="980" y="380" width="300" height="168" rx="8" fill="#ffffff" stroke="#dce2ec" stroke-width="2"/>
<rect x="980" y="380" width="8" height="168" rx="4" fill="#0a7f55"/>
<text x="1004" y="414" font-family="Arial, sans-serif" font-size="18" font-weight="700" fill="#10141f">7. Published artifacts</text>
<text x="1004" y="446" font-family="Arial, sans-serif" font-size="14" fill="#394255">results/**/*.json/csv/npz</text>
<text x="1004" y="468" font-family="Arial, sans-serif" font-size="14" fill="#394255">docs/data/summary_metrics.json</text>
<text x="1004" y="490" font-family="Arial, sans-serif" font-size="14" fill="#394255">GitHub Pages dashboard</text>
<text x="1004" y="512" font-family="Arial, sans-serif" font-size="14" fill="#394255">reproducibility audit</text>
<rect x="60" y="620" width="1220" height="96" rx="8" fill="#f8fafc" stroke="#dce2ec"/>
<text x="84" y="650" font-family="Arial, sans-serif" font-size="15" fill="#273143">Audit check: rerunning scripts to /private/tmp reproduced committed metrics exactly.</text>
<text x="84" y="674" font-family="Arial, sans-serif" font-size="15" fill="#273143">Video/depth check: fresh cache read depth plus fisheye_cam0/1/2/3 and stereo_left/right from raw files.</text>
<text x="84" y="698" font-family="Arial, sans-serif" font-size="15" fill="#273143">Scope check: this validates one public sample episode, not cross-episode generalization.</text>
</svg>